<?xml version="1.0" encoding="iso-8859-1"?>
<!-- Generator: Adobe Illustrator 19.0.0, SVG Export Plug-In . SVG Version: 6.00 Build 0)  -->
<svg version="1.1" id="Layer_1" xmlns="http://www.w3.org/2000/svg" xmlns:xlink="http://www.w3.org/1999/xlink" x="0px" y="0px"
	 viewBox="0 0 512 512" style="enable-background:new 0 0 512 512;" xml:space="preserve">
<path style="fill:#FFD9B3;" d="M239.304,22.261H50.087C22.468,22.261,0,44.729,0,72.348v283.826h300.522V83.478
	C300.522,49.723,273.054,22.261,239.304,22.261z"/>
<path style="fill:#FFC080;" d="M239.304,22.261h-89.043v300.522h150.261V83.478C300.522,49.723,273.054,22.261,239.304,22.261z"/>
<path style="fill:#DBE9FD;" d="M233.739,166.957v105.739c0,9.238-7.457,16.696-16.696,16.696H83.478
	c-9.238,0-16.696-7.457-16.696-16.696V166.957H233.739z"/>
<path style="fill:#C5DCFD;" d="M150.261,289.391h66.783c9.217,0,16.696-7.473,16.696-16.696V166.957h-83.478V289.391z"/>
<path style="fill:#95673F;" d="M183.652,233.739v55.652H116.87v-55.652c0-18.365,15.026-33.391,33.391-33.391
	S183.652,215.374,183.652,233.739z"/>
<path style="fill:#FF6243;" d="M233.739,166.957l-71.674-73.021c-6.521-6.521-17.087-6.521-23.609,0l-71.673,73.021H233.739z"/>
<path style="fill:#FF3501;" d="M233.739,166.957l-71.674-73.021c-3.26-3.261-7.532-4.892-11.804-4.892v77.913H233.739z"/>
<path style="fill:#875334;" d="M150.261,200.348v89.043h33.391v-55.652C183.652,215.374,168.626,200.348,150.261,200.348z"/>
<path style="fill:#A1A9AF;" d="M333.913,322.783H16.696C7.473,322.783,0,330.261,0,339.478v66.783
	c0,9.217,7.473,16.696,16.696,16.696h317.217V322.783z"/>
<rect x="150.261" y="322.783" style="fill:#8A9096;" width="183.652" height="100.174"/>
<path style="fill:#8EB043;" d="M374.762,122.435h-57.544c-9.238,0-16.696,7.457-16.696,16.696v217.043v50.087v16.696h161.391
	c27.603,0,50.087-22.483,50.087-50.087V259.673C512,183.986,450.449,122.435,374.762,122.435z"/>
<path style="fill:#615349;" d="M512,259.673v29.718H384c-9.238,0-16.696-7.457-16.696-16.696V122.435h7.457
	C450.449,122.435,512,183.986,512,259.673z"/>
<path style="fill:#6E6057;" d="M395.13,489.739c-27.619,0-50.087-22.468-50.087-50.087s22.468-50.087,50.087-50.087
	c27.619,0,50.087,22.468,50.087,50.087S422.749,489.739,395.13,489.739z"/>
<path style="fill:#615349;" d="M445.217,439.652c0-27.619-22.468-50.087-50.087-50.087v100.174
	C422.749,489.739,445.217,467.271,445.217,439.652z"/>
<path style="fill:#DBE9FD;" d="M395.13,422.957c-9.206,0-16.696,7.49-16.696,16.696c0,9.206,7.49,16.696,16.696,16.696
	c9.206,0,16.696-7.49,16.696-16.696C411.826,430.446,404.336,422.957,395.13,422.957z"/>
<path style="fill:#C5DCFD;" d="M411.826,439.652c0-9.206-7.49-16.696-16.696-16.696v33.391
	C404.336,456.348,411.826,448.858,411.826,439.652z"/>
<path style="fill:#6E6057;" d="M116.87,489.739c-27.619,0-50.087-22.468-50.087-50.087s22.468-50.087,50.087-50.087
	s50.087,22.468,50.087,50.087S144.489,489.739,116.87,489.739z"/>
<path style="fill:#615349;" d="M166.957,439.652c0-27.619-22.468-50.087-50.087-50.087v100.174
	C144.489,489.739,166.957,467.271,166.957,439.652z"/>
<path style="fill:#DBE9FD;" d="M116.87,422.957c-9.206,0-16.696,7.49-16.696,16.696c0,9.206,7.49,16.696,16.696,16.696
	s16.696-7.49,16.696-16.696C133.565,430.446,126.076,422.957,116.87,422.957z"/>
<g>
	<path style="fill:#C5DCFD;" d="M133.565,439.652c0-9.206-7.49-16.696-16.696-16.696v33.391
		C126.076,456.348,133.565,448.858,133.565,439.652z"/>
	<path style="fill:#C5DCFD;" d="M512,322.783h-50.087c-9.223,0-16.696,7.479-16.696,16.696c0,9.217,7.473,16.696,16.696,16.696H512
		V322.783z"/>
</g>
<g>
</g>
<g>
</g>
<g>
</g>
<g>
</g>
<g>
</g>
<g>
</g>
<g>
</g>
<g>
</g>
<g>
</g>
<g>
</g>
<g>
</g>
<g>
</g>
<g>
</g>
<g>
</g>
<g>
</g>
</svg>
