<?xml version="1.0" encoding="iso-8859-1"?>
<!-- Generator: Adobe Illustrator 19.0.0, SVG Export Plug-In . SVG Version: 6.00 Build 0)  -->
<svg version="1.1" id="Layer_1" xmlns="http://www.w3.org/2000/svg" xmlns:xlink="http://www.w3.org/1999/xlink" x="0px" y="0px"
	 viewBox="0 0 512 512" style="enable-background:new 0 0 512 512;" xml:space="preserve">
<path style="fill:#F85C67;" d="M509.811,222.448C493.377,96.92,386.011,0,256,0C114.615,0,0,114.615,0,256
	c0,126.174,91.282,231.02,211.408,252.121L509.811,222.448z"/>
<path style="fill:#F63341;" d="M55.739,352.453l155.669,155.669C225.89,510.665,240.789,512,256,512c141.384,0,256-114.616,256-256
	c0-11.373-0.751-22.57-2.189-33.552l-72.987-72.987l-136.302,30.473l-22.268-22.268l-16.696-5.565L55.739,352.453z"/>
<polygon style="fill:#FEF2CC;" points="166.95,46.364 144.689,111.878 155.819,291.233 261.559,291.233 261.559,157.668 
	278.254,157.668 "/>
<polygon style="fill:#FFFFFF;" points="55.645,157.668 72.341,157.668 72.341,291.233 166.95,291.233 166.95,46.364 "/>
<polygon style="fill:#8C2416;" points="166.945,179.929 141.902,291.233 205.902,291.233 205.902,179.929 "/>
<rect x="127.989" y="179.935" style="fill:#A72B1A;" width="38.957" height="111.304"/>
<polygon style="fill:#B0B7B6;" points="311.645,280.105 55.645,280.105 55.645,302.365 311.645,330.191 "/>
<polygon style="fill:#889391;" points="311.645,302.365 55.645,302.365 55.645,352.452 300.515,352.452 "/>
<path style="fill:#FFFFFF;" d="M389.565,129.844h-89.043v172.52l72.348,44.514l83.478-44.514V196.627
	C456.348,159.896,426.296,129.844,389.565,129.844z"/>
<path style="fill:#7DDCD4;" d="M389.565,152.105h-66.783v72.337h111.304v-27.815C434.087,172.077,414.114,152.105,389.565,152.105z"
	/>
<path style="fill:#263230;" d="M126.546,402.54l-30.052-50.087l30.052-50.087c27.618,0,50.087,22.469,50.087,50.087
	C176.633,380.071,154.164,402.54,126.546,402.54z"/>
<path style="fill:#1A534A;" d="M76.459,352.453c0,27.618,22.469,50.087,50.087,50.087V302.365
	C98.928,302.365,76.459,324.834,76.459,352.453z"/>
<path style="fill:#C3C9C8;" d="M126.546,380.279l-16.696-27.826l16.696-27.826c15.343,0,27.826,12.483,27.826,27.826
	C154.372,367.796,141.89,380.279,126.546,380.279z"/>
<path style="fill:#FFFFFF;" d="M98.72,352.453c0,15.343,12.483,27.826,27.826,27.826v-55.652
	C111.203,324.627,98.72,337.11,98.72,352.453z"/>
<path style="fill:#616F6D;" d="M430.559,302.364c-13.17-13.706-31.659-22.261-52.124-22.261c-20.464,0-38.954,8.555-52.124,22.261
	h-25.789v50.087h155.826v-50.087H430.559z"/>
<path style="fill:#263230;" d="M378.434,402.54l-30.052-50.087l30.052-50.087c27.618,0,50.087,22.469,50.087,50.087
	C428.521,380.071,406.053,402.54,378.434,402.54z"/>
<path style="fill:#1A534A;" d="M328.347,352.453c0,27.618,22.469,50.087,50.087,50.087V302.365
	C350.816,302.365,328.347,324.834,328.347,352.453z"/>
<path style="fill:#B0B7B6;" d="M378.435,380.277l-16.696-27.826l16.696-27.826c15.343,0,27.826,12.483,27.826,27.826
	C406.261,367.794,393.778,380.277,378.435,380.277z"/>
<path style="fill:#C3C9C8;" d="M350.609,352.451c0,15.343,12.483,27.826,27.826,27.826v-55.652
	C363.091,324.625,350.609,337.107,350.609,352.451z"/>
<g>
</g>
<g>
</g>
<g>
</g>
<g>
</g>
<g>
</g>
<g>
</g>
<g>
</g>
<g>
</g>
<g>
</g>
<g>
</g>
<g>
</g>
<g>
</g>
<g>
</g>
<g>
</g>
<g>
</g>
</svg>
